<svg id="Layer_5" enable-background="new 0 0 64 64" height="512" viewBox="0 0 64 64" width="512" xmlns="http://www.w3.org/2000/svg"><g><g><g><path d="m49 60c0 .55-.22 1.05-.59 1.41-.36.37-.86.59-1.41.59h-30c-1.1 0-2-.9-2-2s.45-2.1 1.17-2.83c.73-.72 1.73-1.17 2.83-1.17h3 20 3c2.21 0 4 1.79 4 4z" fill="#969faa"/></g><g><path d="m42 56h-20c1.87-1.25 3-3.35 3-5.61v-.39h14v.39c0 2.26 1.13 4.36 3 5.61z" fill="#aab2bd"/></g><g><path d="m58 42v4c0 2.21-1.79 4-4 4h-15-14-15c-2.21 0-4-1.79-4-4v-4z" fill="#ccd1d9"/></g><g><path d="m10 10c-2.21 0-4 1.79-4 4v28h52v-32z" fill="#69d6f4"/></g><g><path d="m50 34h4v4h-4z" fill="#b4dd7f"/></g><g><path d="m42 34h4v4h-4z" fill="#b4dd7f"/></g><g><path d="m34 34h4v4h-4z" fill="#b4dd7f"/></g><g><path d="m2 34v-4c0-1.1.9-2 2-2h2 10c1.1 0 2 .9 2 2v4c0 1.1-.9 2-2 2h-10-2c-1.1 0-2-.9-2-2z" fill="#ffeaa7"/></g><g><path d="m2 22v-4c0-1.1.9-2 2-2h2 10c1.1 0 2 .9 2 2v4c0 1.1-.9 2-2 2h-10-2c-1.1 0-2-.9-2-2z" fill="#ffeaa7"/></g><g><path d="m62 4v16c0 1.1-.9 2-2 2h-2-22c-1.1 0-2-.9-2-2v-10-6c0-1.1.9-2 2-2h24c1.1 0 2 .9 2 2z" fill="#e6e9ed"/></g><g><path d="m54.08 10.62c.56.23.92.77.92 1.38s-.36 1.15-.92 1.38l-10.77 4.49c-.21.09-.42.13-.64.13-.92 0-1.67-.75-1.67-1.67v-8.66c0-.92.75-1.67 1.67-1.67.22 0 .43.04.64.13z" fill="#ff826e"/></g></g><g><path d="m15 45h2v2h-2z"/><path d="m11 45h2v2h-2z"/><path d="m19 45h2v2h-2z"/><path d="m60 1h-24c-1.654 0-3 1.346-3 3v5h-23c-2.757 0-5 2.243-5 5v1h-1c-1.654 0-3 1.346-3 3v4c0 1.654 1.346 3 3 3h1v2h-1c-1.654 0-3 1.346-3 3v4c0 1.654 1.346 3 3 3h1v9c0 2.757 2.243 5 5 5h13.963c-.168 1.595-.997 3.041-2.296 4h-2.667c-2.757 0-5 2.243-5 5 0 1.654 1.346 3 3 3h30c1.654 0 3-1.346 3-3 0-2.757-2.243-5-5-5h-2.666c-1.299-.959-2.128-2.405-2.296-4h13.962c2.757 0 5-2.243 5-5v-23h1c1.654 0 3-1.346 3-3v-16c0-1.654-1.346-3-3-3zm-57 21v-4c0-.551.449-1 1-1h12c.551 0 1 .449 1 1v4c0 .551-.449 1-1 1h-12c-.551 0-1-.449-1-1zm0 12v-4c0-.551.449-1 1-1h12c.551 0 1 .449 1 1v4c0 .552-.449 1-1 1h-12c-.551 0-1-.448-1-1zm45 26c0 .552-.449 1-1 1h-30c-.551 0-1-.448-1-1 0-1.654 1.346-3 3-3h26c1.654 0 3 1.346 3 3zm-8.471-5h-15.058c.858-1.155 1.378-2.536 1.492-4h12.075c.114 1.464.634 2.845 1.491 4zm14.471-6h-44c-1.654 0-3-1.346-3-3v-3h50v3c0 1.654-1.346 3-3 3zm3-8h-50v-4h9c1.654 0 3-1.346 3-3v-4c0-1.654-1.346-3-3-3h-9v-2h9c1.654 0 3-1.346 3-3v-4c0-1.654-1.346-3-3-3h-9v-1c0-1.654 1.346-3 3-3h23v9c0 1.654 1.346 3 3 3h21zm4-21c0 .551-.449 1-1 1h-24c-.551 0-1-.449-1-1v-16c0-.551.449-1 1-1h24c.551 0 1 .449 1 1z"/><path d="m54.462 9.692-10.769-4.486c-.326-.137-.672-.206-1.026-.206-1.471 0-2.667 1.196-2.667 2.667v8.667c0 1.47 1.196 2.666 2.667 2.666.355 0 .7-.069 1.026-.206l10.77-4.487c.933-.389 1.537-1.295 1.537-2.307s-.604-1.918-1.538-2.308zm-.77 2.77-10.771 4.487c-.417.175-.921-.159-.921-.616v-8.666c0-.368.299-.667.667-.667.088 0 .174.017.256.051l10.77 4.487c.186.078.307.259.307.462s-.121.384-.308.462z"/><path d="m5 31h2v2h-2z"/><path d="m13 31h2v2h-2z"/><path d="m9 31h2v2h-2z"/><path d="m5 19h10v2h-10z"/><path d="m21 13h10v2h-10z"/><path d="m21 17h2v2h-2z"/><path d="m25 17h6v2h-6z"/><path d="m21 21h10v2h-10z"/><path d="m21 25h10v2h-10z"/><path d="m21 29h10v2h-10z"/><path d="m21 33h10v2h-10z"/><path d="m21 37h10v2h-10z"/><path d="m49 39h6v-6h-6zm2-4h2v2h-2z"/><path d="m41 39h6v-6h-6zm2-4h2v2h-2z"/><path d="m33 39h6v-6h-6zm2-4h2v2h-2z"/><path d="m33 25h2v2h-2z"/><path d="m37 25h18v2h-18z"/><path d="m33 29h22v2h-22z"/></g></g></svg>