<svg id="Flat" height="512" viewBox="0 0 512 512" width="512" xmlns="http://www.w3.org/2000/svg"><path d="m24 120h384v288h-384z" fill="#8c5237"/><path d="m56 344h320v32h-320z" fill="#9aa3a8"/><path d="m376 344h-136l-24 32-24-32h-136v-240h136l24 32 24-32h136z" fill="#e9eef2"/><g fill="#9aa3a8"><path d="m224 125.33v240l-8 10.67-8-10.67v-240l8 10.67z"/><path d="m184 160h-64a8 8 0 0 1 0-16h64a8 8 0 0 1 0 16z"/><path d="m184 192h-96a8 8 0 0 1 0-16h96a8 8 0 0 1 0 16z"/><path d="m120 224h-32a8 8 0 0 1 0-16h32a8 8 0 0 1 0 16z"/><path d="m184 224h-32a8 8 0 0 1 0-16h32a8 8 0 0 1 0 16z"/><path d="m184 256h-96a8 8 0 0 1 0-16h96a8 8 0 0 1 0 16z"/><path d="m184 320h-96a8 8 0 0 1 0-16h96a8 8 0 0 1 0 16z"/><path d="m344 160h-64a8 8 0 0 1 0-16h64a8 8 0 0 1 0 16z"/><path d="m344 192h-96a8 8 0 0 1 0-16h96a8 8 0 0 1 0 16z"/><path d="m280 224h-32a8 8 0 0 1 0-16h32a8 8 0 0 1 0 16z"/><path d="m344 224h-32a8 8 0 0 1 0-16h32a8 8 0 0 1 0 16z"/><path d="m464 120 24 48h-48z"/></g><path d="m440 168h48v208h-48z" fill="#ad6643"/><path d="m440 344h48v32h-48z" fill="#8c5237"/><path d="m440 376h48a0 0 0 0 1 0 0v16a16 16 0 0 1 -16 16h-16a16 16 0 0 1 -16-16v-16a0 0 0 0 1 0 0z" fill="#e9eef2"/><path d="m344 256h-96a8 8 0 0 1 0-16h96a8 8 0 0 1 0 16z" fill="#9aa3a8"/><path d="m296 288h-48a8 8 0 0 1 0-16h48a8 8 0 0 1 0 16z" fill="#9aa3a8"/><path d="m120 288h-32a8 8 0 0 1 0-16h32a8 8 0 0 1 0 16z" fill="#9aa3a8"/><path d="m184 288h-32a8 8 0 0 1 0-16h32a8 8 0 0 1 0 16z" fill="#9aa3a8"/></svg>