<svg id="Gradient" height="512" viewBox="0 0 512 512" width="512" xmlns="http://www.w3.org/2000/svg" xmlns:xlink="http://www.w3.org/1999/xlink"><linearGradient id="linear-gradient" gradientUnits="userSpaceOnUse" x1="256" x2="256" y1="416" y2="96"><stop offset="0" stop-color="#12c0e7"/><stop offset=".5" stop-color="#c271eb"/><stop offset="1" stop-color="#f44f5a"/></linearGradient><path d="m24 416h384a8 8 0 0 0 8-8v-288a8 8 0 0 0 -8-8h-24v-8a8 8 0 0 0 -8-8h-136a8 8 0 0 0 -6.4 3.2l-17.6 23.467-17.6-23.467a8 8 0 0 0 -6.4-3.2h-136a8 8 0 0 0 -8 8v8h-24a8 8 0 0 0 -8 8v288a8 8 0 0 0 8 8zm40-64h124l12 16h-136zm180-240h124v224h-128a8 8 0 0 0 -6.4 3.2l-9.6 12.8v-213.333zm124 240v16h-136l12-16zm-304-240h124l20 26.667v213.333l-9.6-12.8a8 8 0 0 0 -6.4-3.2h-128zm-32 16h16v248a8 8 0 0 0 8 8h320a8 8 0 0 0 8-8v-248h16v272h-368zm463.155 36.422-24-48a8 8 0 0 0 -14.31 0l-24 48h.006a7.952 7.952 0 0 0 -.851 3.578v224a24.027 24.027 0 0 0 24 24h16a24.027 24.027 0 0 0 24-24v-224a7.952 7.952 0 0 0 -.851-3.575zm-31.155-26.533 11.056 22.111h-22.112zm-16 214.111h32v16h-32zm32-16h-32v-160h32zm-8 64h-16a8.009 8.009 0 0 1 -8-8v-8h32v8a8.009 8.009 0 0 1 -8 8zm-360-248a8 8 0 0 1 8-8h64a8 8 0 0 1 0 16h-64a8 8 0 0 1 -8-8zm-32 32a8 8 0 0 1 8-8h96a8 8 0 0 1 0 16h-96a8 8 0 0 1 -8-8zm0 32a8 8 0 0 1 8-8h32a8 8 0 0 1 0 16h-32a8 8 0 0 1 -8-8zm112 0a8 8 0 0 1 -8 8h-32a8 8 0 0 1 0-16h32a8 8 0 0 1 8 8zm-112 32a8 8 0 0 1 8-8h96a8 8 0 0 1 0 16h-96a8 8 0 0 1 -8-8zm0 64a8 8 0 0 1 8-8h96a8 8 0 0 1 0 16h-96a8 8 0 0 1 -8-8zm192-160a8 8 0 0 1 8-8h64a8 8 0 0 1 0 16h-64a8 8 0 0 1 -8-8zm-32 32a8 8 0 0 1 8-8h96a8 8 0 0 1 0 16h-96a8 8 0 0 1 -8-8zm0 32a8 8 0 0 1 8-8h32a8 8 0 0 1 0 16h-32a8 8 0 0 1 -8-8zm112 0a8 8 0 0 1 -8 8h-32a8 8 0 0 1 0-16h32a8 8 0 0 1 8 8zm-112 32a8 8 0 0 1 8-8h96a8 8 0 0 1 0 16h-96a8 8 0 0 1 -8-8zm0 32a8 8 0 0 1 8-8h48a8 8 0 0 1 0 16h-48a8 8 0 0 1 -8-8zm-160 0a8 8 0 0 1 8-8h32a8 8 0 0 1 0 16h-32a8 8 0 0 1 -8-8zm112 0a8 8 0 0 1 -8 8h-32a8 8 0 0 1 0-16h32a8 8 0 0 1 8 8z" fill="url(#linear-gradient)"/></svg>