<svg id="Capa_1" enable-background="new 0 0 512 512" height="512" viewBox="0 0 512 512" width="512" xmlns="http://www.w3.org/2000/svg"><g><path d="m464.577 271-69.49-151.366c-21.837-22.282-48.9-39.442-79.327-49.234l-26.356-36.337-33.404 4.252-121.128 15.416-49.11 67.269 29.932 270c22.051 22.927 49.513 40.715 80.536 50.7l26.366 36.237 33.404-5.276 91.128-14.392 118.872-112.269z" fill="#59abff"/><path d="m466 346-1.423-75-69.49-151.366c-21.837-22.282-48.9-39.442-79.327-49.234l-26.356-36.337-33.404 4.252v434.346l91.128-14.392z" fill="#4d87ff"/><path d="m441.31 195.493c-9.421-28.867-25.468-54.681-46.223-75.859-1.393.429-2.582 1.366-4.087 1.366h-90c-24.814 0-45 20.186-45 45s20.186 45 45 45h30c8.276 0 15 6.724 15 15 0 24.814 20.186 45 45 45h73.577l-.817-43.01z" fill="#a0e65c"/><path d="m181 346c0-8.276 6.724-15 15-15h15c24.814 0 45-20.186 45-45s-20.186-45-45-45h-45c-8.276 0-15-6.724-15-15v-105h-65.238l-32.031 43.872-19.624 124.821 36.583 26.814c9.227 28.271 24.869 53.56 45.004 74.493h20.306c24.815 0 45-20.186 45-45z" fill="#c1f261"/><path d="m195.817 140.711c1.899-24.512-11.169-45.935-30.842-56.905 28.98-15.297 60.265-22.464 91.025-22.522 20.253-.038 40.784 3.069 59.76 9.116 14.985 4.775 30.899.069 37.813-17.12 6.528-16.196-2.082-35.429-18.516-40.785-25.458-8.291-52.06-12.495-79.057-12.495-140.61 0-256 115.39-256 256 0 27.524 5.365 54.58 13.949 80.449l.015.015c5.495 16.518 23.8 24.831 39.946 18.237 13.759-5.671 22.348-21.301 16.78-38.194-16.042-49.129-11.949-104.042 13.116-151.533 10.97 19.673 32.394 32.742 56.905 30.842 29.265-2.267 52.839-25.84 55.106-55.105z" fill="#ffdf40"/><path d="m511.977 252.556c-.349-26.337-4.701-52.216-12.926-77.005l-.015-.015c-5.495-16.518-24.8-24.831-40.946-18.237-13.759 5.669-22.348 21.299-16.78 38.194 15.65 47.934 12.458 102.7-12.554 150.571-.172.332-.388.632-.562.961-10.97-19.673-32.394-32.742-56.905-30.842-29.265 2.268-52.838 25.841-55.106 55.106-1.899 24.512 11.169 45.935 30.842 56.905-28.934 15.271-60.223 22.463-91.025 22.522-20.371.04-40.637-2.88-59.75-9.016-10.705-3.437-30-2.432-37.823 17.02-6.528 16.196 2.082 35.429 18.516 40.785 25.459 8.291 52.061 12.493 79.058 12.493.091 0 .181.002.271.002 141.386-.148 257.578-118.07 255.705-259.444z" fill="#ffdf40"/><g fill="#ffbe40"><path d="m511.977 252.556c-.349-26.337-4.701-52.216-12.926-77.005l-.015-.015c-5.495-16.518-24.8-24.831-40.946-18.237-13.759 5.669-22.348 21.299-16.78 38.194 15.65 47.934 12.458 102.7-12.554 150.571-.172.332-.388.632-.562.961-10.97-19.673-32.394-32.742-56.905-30.842-29.265 2.268-52.838 25.841-55.106 55.106-1.899 24.512 11.169 45.935 30.842 56.905-28.934 15.271-60.223 22.463-91.025 22.522v61.281c.091 0 .181.002.271.002 141.387-.147 257.579-118.069 255.706-259.443z"/><path d="m353.573 53.28c6.528-16.196-2.082-35.429-18.516-40.785-25.458-8.291-52.06-12.495-79.057-12.495v61.284c20.253-.038 40.784 3.069 59.76 9.116 14.985 4.775 30.899.069 37.813-17.12z"/></g></g></svg>