<svg id="Filled" height="512" viewBox="0 0 512 512" width="512" xmlns="http://www.w3.org/2000/svg"><path d="m24 120h384v288h-384z" fill="#8c5237"/><path d="m56 344h320v32h-320z" fill="#9aa3a8"/><path d="m376 344h-136l-24 32-24-32h-136v-240h136l24 32 24-32h136z" fill="#e9eef2"/><path d="m464 120 24 48h-48z" fill="#9aa3a8"/><path d="m440 168h48v208h-48z" fill="#ad6643"/><path d="m440 344h48v32h-48z" fill="#8c5237"/><path d="m440 376h48a0 0 0 0 1 0 0v16a16 16 0 0 1 -16 16h-16a16 16 0 0 1 -16-16v-16a0 0 0 0 1 0 0z" fill="#e9eef2"/><path d="m24 416h384a8 8 0 0 0 8-8v-288a8 8 0 0 0 -8-8h-24v-8a8 8 0 0 0 -8-8h-136a8 8 0 0 0 -6.4 3.2l-17.6 23.467-17.6-23.467a8 8 0 0 0 -6.4-3.2h-136a8 8 0 0 0 -8 8v8h-24a8 8 0 0 0 -8 8v288a8 8 0 0 0 8 8zm40-64h124l12 16h-136zm180-240h124v224h-128a8 8 0 0 0 -6.4 3.2l-9.6 12.8v-213.333zm124 240v16h-136l12-16zm-304-240h124l20 26.667v213.333l-9.6-12.8a8 8 0 0 0 -6.4-3.2h-128zm-32 16h16v248a8 8 0 0 0 8 8h320a8 8 0 0 0 8-8v-248h16v272h-368z"/><path d="m495.155 164.422-24-48a8 8 0 0 0 -14.31 0l-24 48h.006a7.952 7.952 0 0 0 -.851 3.578v224a24.027 24.027 0 0 0 24 24h16a24.027 24.027 0 0 0 24-24v-224a7.952 7.952 0 0 0 -.851-3.575zm-31.155-26.533 11.056 22.111h-22.112zm-16 214.111h32v16h-32zm32-16h-32v-160h32zm-8 64h-16a8.009 8.009 0 0 1 -8-8v-8h32v8a8.009 8.009 0 0 1 -8 8z"/><path d="m120 160h64a8 8 0 0 0 0-16h-64a8 8 0 0 0 0 16z"/><path d="m88 192h96a8 8 0 0 0 0-16h-96a8 8 0 0 0 0 16z"/><path d="m88 224h32a8 8 0 0 0 0-16h-32a8 8 0 0 0 0 16z"/><path d="m184 208h-32a8 8 0 0 0 0 16h32a8 8 0 0 0 0-16z"/><path d="m88 256h96a8 8 0 0 0 0-16h-96a8 8 0 0 0 0 16z"/><path d="m88 320h96a8 8 0 0 0 0-16h-96a8 8 0 0 0 0 16z"/><path d="m280 160h64a8 8 0 0 0 0-16h-64a8 8 0 0 0 0 16z"/><path d="m248 192h96a8 8 0 0 0 0-16h-96a8 8 0 0 0 0 16z"/><path d="m248 224h32a8 8 0 0 0 0-16h-32a8 8 0 0 0 0 16z"/><path d="m344 208h-32a8 8 0 0 0 0 16h32a8 8 0 0 0 0-16z"/><path d="m248 256h96a8 8 0 0 0 0-16h-96a8 8 0 0 0 0 16z"/><path d="m248 288h48a8 8 0 0 0 0-16h-48a8 8 0 0 0 0 16z"/><path d="m88 288h32a8 8 0 0 0 0-16h-32a8 8 0 0 0 0 16z"/><path d="m184 272h-32a8 8 0 0 0 0 16h32a8 8 0 0 0 0-16z"/></svg>