<svg id="Layer_1" enable-background="new 0 0 256 256" height="512" viewBox="0 0 256 256" width="512" xmlns="http://www.w3.org/2000/svg"><path d="m19 121.667h55.635v108.333h-55.635z" fill="#e0ebfc"/><path d="m181.365 121.667h55.635v108.333h-55.635z" fill="#e0ebfc"/><path d="m224.591 69.542c-.968-2.155-3.111-3.542-5.474-3.542h-91.117-91.117c-2.363 0-4.505 1.387-5.473 3.542l-22.144 49.305c-.594 1.323.374 2.819 1.824 2.819h116.91 116.909c1.451 0 2.419-1.496 1.824-2.819z" fill="#4671c6"/><path d="m244.909 123.667h-233.818c-1.363 0-2.618-.683-3.358-1.827s-.849-2.569-.29-3.813l22.143-49.305c1.287-2.868 4.151-4.722 7.297-4.722h182.234c3.146 0 6.01 1.854 7.298 4.723l22.143 49.306c.559 1.242.45 2.667-.29 3.812s-1.996 1.826-3.359 1.826zm-208.026-55.667c-1.572 0-3.005.927-3.649 2.361l-22.143 49.306h233.818l-22.143-49.306c-.645-1.435-2.077-2.361-3.649-2.361z" fill="#3762cc"/><path d="m237 232h-218c-1.104 0-2-.896-2-2v-108.333c0-1.104.896-2 2-2h218c1.104 0 2 .896 2 2v108.333c0 1.104-.896 2-2 2zm-216-4h214v-104.333h-214z" fill="#3762cc"/><path d="m224.682 165.675h-15.5v-28h15.5c1.105 0 2 .895 2 2v24c0 1.104-.895 2-2 2z" fill="#a4c9ff"/><path d="m224.682 209.675h-15.5v-28h15.5c1.105 0 2 .895 2 2v24c0 1.104-.895 2-2 2z" fill="#a4c9ff"/><path d="m46.818 165.675h-15.5c-1.105 0-2-.895-2-2v-24c0-1.105.895-2 2-2h15.5z" fill="#a4c9ff"/><path d="m46.818 209.675h-15.5c-1.105 0-2-.895-2-2v-24c0-1.105.895-2 2-2h15.5z" fill="#a4c9ff"/><path d="m209.182 165.675h-15.5c-1.105 0-2-.895-2-2v-24c0-1.105.895-2 2-2h15.5z" fill="#a4c9ff"/><path d="m209.182 209.675h-15.5c-1.105 0-2-.895-2-2v-24c0-1.105.895-2 2-2h15.5z" fill="#a4c9ff"/><path d="m62.318 165.675h-15.5v-28h15.5c1.105 0 2 .895 2 2v24c0 1.104-.896 2-2 2z" fill="#a4c9ff"/><path d="m62.318 209.675h-15.5v-28h15.5c1.105 0 2 .895 2 2v24c0 1.104-.896 2-2 2z" fill="#a4c9ff"/><path d="m224.683 167.675h-15.5c-1.104 0-2-.896-2-2v-28c0-1.104.896-2 2-2h15.5c2.206 0 4 1.794 4 4v24c0 2.206-1.794 4-4 4zm-13.5-4h13.503l-.003-24h-13.5z" fill="#3762cc"/><path d="m224.683 211.675h-15.5c-1.104 0-2-.896-2-2v-28c0-1.104.896-2 2-2h15.5c2.206 0 4 1.794 4 4v24c0 2.206-1.794 4-4 4zm-13.5-4h13.503l-.003-24h-13.5z" fill="#3762cc"/><path d="m46.817 167.675h-15.5c-2.206 0-4-1.794-4-4v-24c0-2.206 1.794-4 4-4h15.5c1.104 0 2 .896 2 2v28c0 1.104-.895 2-2 2zm-15.5-28v24h13.5v-24z" fill="#3762cc"/><path d="m46.817 211.675h-15.5c-2.206 0-4-1.794-4-4v-24c0-2.206 1.794-4 4-4h15.5c1.104 0 2 .896 2 2v28c0 1.104-.895 2-2 2zm-15.5-28v24h13.5v-24z" fill="#3762cc"/><path d="m209.183 167.675h-15.5c-2.206 0-4-1.794-4-4v-24c0-2.206 1.794-4 4-4h15.5c1.104 0 2 .896 2 2v28c0 1.104-.896 2-2 2zm-15.5-28v24h13.5v-24z" fill="#3762cc"/><path d="m209.183 211.675h-15.5c-2.206 0-4-1.794-4-4v-24c0-2.206 1.794-4 4-4h15.5c1.104 0 2 .896 2 2v28c0 1.104-.896 2-2 2zm-15.5-28v24h13.5v-24z" fill="#3762cc"/><path d="m62.317 167.675h-15.5c-1.104 0-2-.896-2-2v-28c0-1.104.896-2 2-2h15.5c2.206 0 4 1.794 4 4v24c0 2.206-1.794 4-4 4zm-13.5-4h13.503l-.003-24h-13.5z" fill="#3762cc"/><path d="m62.317 211.675h-15.5c-1.104 0-2-.896-2-2v-28c0-1.104.896-2 2-2h15.5c2.206 0 4 1.794 4 4v24c0 2.206-1.794 4-4 4zm-13.5-4h13.503l-.003-24h-13.5z" fill="#3762cc"/><path d="m130.794 57.513c-1.567-1.483-4.021-1.483-5.588 0l-50.57 47.867v65.954 40.666 6.333h106.729v-6.333-40.667-65.953z" fill="#e0ebfc"/><path d="m128 8h27.667v16.667h-27.667z" fill="#6bdddd"/><path d="m244 248h-232c-2.209 0-4-1.791-4-4v-10c0-2.209 1.791-4 4-4h232c2.209 0 4 1.791 4 4v10c0 2.209-1.791 4-4 4z" fill="#f9cfcf"/><path d="m189.313 230h-122.625v-7.667c0-2.209 1.791-4 4-4h114.625c2.209 0 4 1.791 4 4z" fill="#f9cfcf"/><path d="m128.5 218.333h-30v-69.333c0-1.657 1.343-3 3-3h27z" fill="#6bdddd"/><path d="m85.333 175.167h56.334v14h-56.334z" fill="#a4c9ff" transform="matrix(0 1 -1 0 295.667 68.667)"/><circle cx="128" cy="108.5" fill="#6bdddd" r="25.833"/><path d="m128 126.334c-9.833 0-17.833-8-17.833-17.834 0-9.833 8-17.833 17.833-17.833s17.833 8 17.833 17.833c0 9.834-8 17.834-17.833 17.834z" fill="#f9cfcf"/><path d="m136 110.5h-8c-1.104 0-2-.896-2-2v-10.833c0-1.104.896-2 2-2s2 .896 2 2v8.833h6c1.104 0 2 .896 2 2s-.896 2-2 2z" fill="#3762cc"/><path d="m158.5 218.333h-30v-72.333h27c1.657 0 3 1.343 3 3z" fill="#6bdddd"/><path d="m115.333 175.167h56.334v14h-56.334z" fill="#a4c9ff" transform="matrix(0 1 -1 0 325.667 38.667)"/><path d="m128 47.333c-1.104 0-2-.896-2-2v-37.333c0-1.104.896-2 2-2s2 .896 2 2v37.333c0 1.105-.896 2-2 2z" fill="#3762cc"/><path d="m125.206 57.513-59.732 56.538c-1.066 1.009-2.741.986-3.779-.052l-6.67-6.67c-1.078-1.078-1.055-2.834.052-3.883l70.127-66.458c1.568-1.486 4.024-1.486 5.592 0l70.127 66.458c1.107 1.049 1.131 2.805.052 3.883l-6.67 6.67c-1.038 1.038-2.713 1.061-3.779.052l-59.732-56.538c-1.567-1.484-4.021-1.484-5.588 0z" fill="#f9a7a7"/><g fill="#3762cc"><path d="m155.667 26.667h-27.667c-1.104 0-2-.896-2-2v-16.667c0-1.104.896-2 2-2h27.667c1.104 0 2 .896 2 2v16.667c0 1.104-.896 2-2 2zm-25.667-4h23.667v-12.667h-23.667z"/><path d="m120.5 212.334h-14c-1.104 0-2-.896-2-2v-56.334c0-1.104.896-2 2-2h14c1.104 0 2 .896 2 2v56.334c0 1.104-.896 2-2 2zm-12-4h10v-52.334h-10z"/><path d="m150.5 212.334h-14c-1.104 0-2-.896-2-2v-56.334c0-1.104.896-2 2-2h14c1.104 0 2 .896 2 2v56.334c0 1.104-.896 2-2 2zm-12-4h10v-52.334h-10z"/><path d="m128.5 220.334h-30c-1.104 0-2-.896-2-2v-69.334c0-2.757 2.243-5 5-5h27c1.104 0 2 .896 2 2v72.334c0 1.104-.896 2-2 2zm-28-4h26v-68.334h-25c-.552 0-1 .448-1 1z"/><path d="m158.5 220.334h-30c-1.104 0-2-.896-2-2v-72.334c0-1.104.896-2 2-2h27c2.757 0 5 2.243 5 5v69.334c0 1.104-.896 2-2 2zm-28-4h26v-67.334c0-.552-.448-1-1-1h-25z"/><path d="m128 136.334c-15.348 0-27.833-12.486-27.833-27.834s12.485-27.833 27.833-27.833 27.833 12.485 27.833 27.833-12.485 27.834-27.833 27.834zm0-51.667c-13.142 0-23.833 10.691-23.833 23.833 0 13.143 10.691 23.834 23.833 23.834s23.833-10.691 23.833-23.834c0-13.142-10.691-23.833-23.833-23.833z"/><path d="m128 128.334c-10.937 0-19.834-8.897-19.834-19.834 0-10.936 8.897-19.833 19.834-19.833s19.834 8.897 19.834 19.833c0 10.937-8.897 19.834-19.834 19.834zm0-35.667c-8.73 0-15.834 7.103-15.834 15.833s7.104 15.834 15.834 15.834 15.834-7.104 15.834-15.834-7.104-15.833-15.834-15.833z"/><path d="m189.313 232h-122.625c-1.104 0-2-.896-2-2v-7.667c0-3.309 2.691-6 6-6h114.625c3.309 0 6 2.691 6 6v7.667c0 1.104-.896 2-2 2zm-120.625-4h118.625v-5.667c0-1.103-.897-2-2-2h-114.625c-1.103 0-2 .897-2 2z"/><path d="m244 250h-232c-3.309 0-6-2.691-6-6v-10c0-3.309 2.691-6 6-6h232c3.309 0 6 2.691 6 6v10c0 3.309-2.691 6-6 6zm-232-18c-1.103 0-2 .897-2 2v10c0 1.103.897 2 2 2h232c1.103 0 2-.897 2-2v-10c0-1.103-.897-2-2-2z"/><path d="m181.364 220.334h-106.728c-1.104 0-2-.896-2-2v-112.954c0-.55.227-1.075.625-1.452l50.57-47.867c2.338-2.213 6-2.213 8.338 0l50.57 47.867c.398.377.625.902.625 1.452v112.954c0 1.104-.895 2-2 2zm-104.728-4h102.729v-110.094l-49.945-47.275c-.795-.752-2.043-.752-2.838 0l-49.946 47.275z"/><path d="m192.39 116.802c-1.161.001-2.322-.432-3.238-1.298l-59.732-56.539c-.795-.752-2.043-.752-2.838 0l-59.732 56.538c-1.867 1.767-4.752 1.727-6.568-.09l-6.67-6.67c-.907-.905-1.396-2.111-1.38-3.394.018-1.282.539-2.474 1.471-3.355l70.126-66.458c2.34-2.217 6.004-2.218 8.344.001l70.127 66.457c.931.882 1.452 2.073 1.47 3.355.017 1.282-.473 2.488-1.381 3.395l-6.669 6.669c-.926.925-2.127 1.389-3.33 1.389zm-64.39-62.402c1.5 0 3 .554 4.169 1.66l59.731 56.538c.281.266.717.261.99-.014l6.67-6.67c.185-.185.21-.4.208-.512-.001-.111-.032-.326-.221-.505l-70.127-66.457c-.797-.756-2.043-.755-2.84-.001l-70.127 66.459c-.189.179-.221.394-.222.505-.002.111.023.327.207.511l6.671 6.671c.274.272.709.28.991.013l59.73-56.537c1.17-1.107 2.67-1.661 4.17-1.661z"/></g></svg>