<?xml version="1.0" encoding="iso-8859-1"?>
<!-- Generator: Adobe Illustrator 19.0.0, SVG Export Plug-In . SVG Version: 6.00 Build 0)  -->
<svg version="1.1" id="Capa_1" xmlns="http://www.w3.org/2000/svg" xmlns:xlink="http://www.w3.org/1999/xlink" x="0px" y="0px"
	 viewBox="0 0 496.873 496.873" style="enable-background:new 0 0 496.873 496.873;" xml:space="preserve">
<rect x="20.558" y="284.121" style="fill:#FFFFFF;" width="113.261" height="204.8"/>
<path style="fill:#193651;" d="M133.818,496.679H20.558c-4.655,0-7.758-3.103-7.758-7.758v-204.8c0-4.655,3.103-7.758,7.758-7.758
	h113.261c4.655,0,7.758,3.103,7.758,7.758v204.8C141.576,493.576,137.697,496.679,133.818,496.679z M28.315,481.164h97.745V291.879
	H28.315V481.164z"/>
<rect x="363.442" y="284.121" style="fill:#FFFFFF;" width="113.261" height="204.8"/>
<g>
	<path style="fill:#193651;" d="M476.703,496.679H363.442c-4.655,0-7.758-3.103-7.758-7.758v-204.8c0-4.655,3.103-7.758,7.758-7.758
		h113.261c4.655,0,7.758,3.103,7.758,7.758v204.8C484.461,493.576,480.582,496.679,476.703,496.679z M371.2,481.164h97.745V291.879
		H371.2V481.164z"/>
	<path style="fill:#193651;" d="M489.115,496.679H8.145c-4.655,0-7.758-3.103-7.758-7.758s3.103-7.758,7.758-7.758h480.97
		c4.655,0,7.758,3.103,7.758,7.758S493.77,496.679,489.115,496.679z"/>
</g>
<polygon style="fill:#F16051;" points="434.036,177.067 63.224,177.067 8.145,284.121 489.115,284.121 "/>
<path style="fill:#193651;" d="M489.115,291.879H8.145c-2.327,0-5.43-1.552-6.982-3.879s-1.552-5.43,0-7.758l55.079-107.055
	c1.552-2.327,3.879-3.879,6.982-3.879h370.036c3.103,0,5.43,1.552,6.982,3.879l55.079,107.055c1.551,2.327,0.776,5.43,0,7.758
	C494.545,290.327,491.442,291.879,489.115,291.879z M20.558,276.364h455.37l-47.321-91.539H67.879L20.558,276.364z"/>
<polygon style="fill:#E1E6E9;" points="396.8,226.715 248.63,114.23 100.461,226.715 "/>
<path style="fill:#193651;" d="M396.8,234.473H100.461c-3.103,0-6.206-2.327-6.982-5.43c-0.776-3.103,0-6.982,2.327-8.533
	l148.17-112.485c3.103-2.327,6.982-2.327,9.309,0l148.17,112.485c2.327,2.327,3.879,5.43,2.327,8.533
	C403.006,232.145,399.903,234.473,396.8,234.473z M123.733,218.958h250.57L248.63,124.315L123.733,218.958z"/>
<polygon style="fill:#FFFFFF;" points="192.776,195.685 248.63,153.018 304.485,195.685 "/>
<rect x="133.818" y="260.073" style="fill:#FDBF5E;" width="229.624" height="228.848"/>
<path style="fill:#193651;" d="M363.442,496.679H133.818c-4.655,0-7.758-3.103-7.758-7.758V260.073c0-4.655,3.103-7.758,7.758-7.758
	h229.624c4.655,0,7.758,3.103,7.758,7.758v228.849C371.2,493.576,368.097,496.679,363.442,496.679z M141.576,481.164h214.109V267.83
	H141.576V481.164z"/>
<rect x="165.081" y="290.537" style="fill:#FFFFFF;" width="167.564" height="190.061"/>
<rect x="119.079" y="226.715" style="fill:#FDBF5E;" width="259.103" height="33.358"/>
<g>
	<path style="fill:#193651;" d="M378.182,267.83H119.079c-4.655,0-7.758-3.103-7.758-7.758v-33.358c0-4.655,3.103-7.758,7.758-7.758
		h259.103c4.655,0,7.758,3.103,7.758,7.758v33.358C385.939,263.952,382.836,267.83,378.182,267.83z M126.836,252.315h243.588
		v-17.842H126.836V252.315z"/>
	<rect x="198.982" y="312.048" style="fill:#193651;" width="15.515" height="15.515"/>
	<rect x="240.873" y="312.048" style="fill:#193651;" width="15.515" height="15.515"/>
	<rect x="282.764" y="312.048" style="fill:#193651;" width="15.515" height="15.515"/>
</g>
<path style="fill:#E1E6E9;" d="M288.97,481.164v-66.715c0-21.721-17.842-40.339-40.339-40.339
	c-21.721,0-40.339,17.842-40.339,40.339v66.715H288.97z"/>
<g>
	<rect x="426.279" y="391.952" style="fill:#2EA2DB;" width="28.703" height="28.703"/>
	<rect x="385.164" y="391.952" style="fill:#2EA2DB;" width="28.703" height="28.703"/>
	<rect x="426.279" y="351.612" style="fill:#2EA2DB;" width="28.703" height="28.703"/>
	<rect x="385.164" y="351.612" style="fill:#2EA2DB;" width="28.703" height="28.703"/>
	<rect x="83.394" y="391.952" style="fill:#2EA2DB;" width="28.703" height="28.703"/>
	<rect x="42.279" y="391.952" style="fill:#2EA2DB;" width="28.703" height="28.703"/>
	<rect x="83.394" y="351.612" style="fill:#2EA2DB;" width="28.703" height="28.703"/>
	<rect x="42.279" y="351.612" style="fill:#2EA2DB;" width="28.703" height="28.703"/>
</g>
<path style="fill:#193651;" d="M248.63,121.988c-4.655,0-7.758-3.103-7.758-7.758V7.952c0-4.655,3.103-7.758,7.758-7.758
	s7.758,3.103,7.758,7.758V114.23C256.388,118.109,253.285,121.988,248.63,121.988z"/>
<polygon style="fill:#4FBF9F;" points="338.618,65.358 248.63,65.358 248.63,7.952 338.618,7.952 315.345,36.655 "/>
<path style="fill:#193651;" d="M338.618,73.115L338.618,73.115H248.63c-4.655,0-7.758-3.103-7.758-7.758V7.952
	c0-4.655,3.103-7.758,7.758-7.758h89.988c3.103,0,5.43,1.552,6.982,4.655c1.552,2.327,0.776,6.206-0.776,8.533L325.43,36.655
	l18.618,22.497c1.552,1.552,2.327,3.879,2.327,6.206C346.376,69.236,343.273,73.115,338.618,73.115z M256.388,57.6h65.939
	l-13.188-15.515c-2.327-3.103-2.327-6.982,0-10.085l13.188-15.515h-65.939V57.6z"/>
<g>
</g>
<g>
</g>
<g>
</g>
<g>
</g>
<g>
</g>
<g>
</g>
<g>
</g>
<g>
</g>
<g>
</g>
<g>
</g>
<g>
</g>
<g>
</g>
<g>
</g>
<g>
</g>
<g>
</g>
</svg>
